<svg width="128" height="128" viewBox="0 0 128 128" fill="none" xmlns="http://www.w3.org/2000/svg">
<path d="M107.545 62.8989C131.072 76.4797 131.072 98.4957 107.545 112.077C84.0318 125.657 45.8878 125.657 22.3614 112.077C-1.16497 98.4957 -1.15216 76.4797 22.3614 62.8989C45.8878 49.3181 84.0318 49.3181 107.545 62.8989Z" fill="#F5F5F5"/>
<path d="M116.762 87.7056C123.43 91.5584 123.43 97.8048 116.762 101.658C110.08 105.51 99.264 105.51 92.5952 101.658C85.9136 97.8048 85.9136 91.5584 92.5952 87.7056C99.264 83.8528 110.08 83.8528 116.762 87.7056Z" fill="#E0E0E0"/>
<path d="M61.4272 100.006L42.1504 88.8704L64.1792 76.1472L83.4688 87.2832L61.4272 100.006Z" fill="#E0E0E0"/>
<path d="M8.93433 96.5633L33.8047 110.912L54.6559 98.8801L29.7855 84.5185L8.93433 96.5633Z" fill="#E0E0E0"/>
<path d="M45.6963 29.0954V27.6746C45.6963 27.5466 45.6067 27.4058 45.4147 27.3034L36.8899 22.401C36.5315 22.1962 35.9427 22.1962 35.5715 22.401L11.0595 36.481C10.8675 36.5834 10.7779 36.7242 10.7779 36.8522H10.7651V38.273H10.7779C10.7779 38.401 10.8675 38.5418 11.0595 38.6442L19.5843 43.5338C19.9427 43.7514 20.5315 43.7514 20.8899 43.5338L45.4147 29.4666C45.6067 29.3642 45.6963 29.2234 45.6963 29.0954Z" fill="#F0F0F0"/>
<path d="M11.0597 37.2362L19.5844 42.1258C19.9428 42.3306 20.5316 42.3306 20.89 42.1258L45.4148 28.0586C45.7732 27.841 45.7732 27.5082 45.4148 27.3034L36.89 22.401C36.5316 22.1962 35.9428 22.1962 35.5716 22.401L11.0597 36.481C10.6885 36.6858 10.6885 37.0186 11.0597 37.2362Z" fill="#FAFAFA"/>
<path d="M20.2371 42.2794V43.7002C20.0067 43.7002 19.7635 43.6362 19.5843 43.5338L11.0595 38.6442C10.8675 38.5418 10.7779 38.401 10.7779 38.273H10.7651V36.8522H10.7779C10.7779 36.801 10.7907 36.7498 10.8291 36.6986C10.7267 36.8778 10.8035 37.0826 11.0595 37.2362L19.5843 42.1258C19.7635 42.2282 20.0067 42.2794 20.2371 42.2794Z" fill="#E0E0E0"/>
<path d="M24.8191 30.3505L32.0511 34.4593L43.9935 27.6113L36.7615 23.4897L24.8191 30.3505Z" fill="#E0E0E0"/>
<path d="M32.1278 34.1521L25.1646 30.1457C25.3438 29.6337 25.331 29.0321 25.1262 28.3409L32.051 32.2961C32.051 32.2961 32.179 32.7441 32.1278 34.1521Z" fill="white"/>
<path d="M31.6927 31.7329C32.0639 31.9505 32.3583 32.4625 32.3583 32.8849V34.2417C32.3583 34.6641 32.0639 34.8305 31.6927 34.6257L24.8191 30.6833V30.3505L31.6031 34.2161C31.8207 34.3441 31.9999 34.2289 31.9999 33.9857V32.7313C31.9999 32.4753 31.8207 32.1681 31.5903 32.0401L24.8191 28.1745V27.7905L31.6927 31.7329Z" fill="#EBEBEB"/>
<path d="M24.8191 27.7905L36.7615 20.9425L43.6351 24.8849C44.0063 25.1025 44.3007 25.6145 44.3007 26.0369V27.3809C44.3007 27.5985 44.2239 27.7521 44.1087 27.8161L32.1663 34.6641C32.2815 34.6001 32.3583 34.4465 32.3583 34.2417V32.8849C32.3583 32.4625 32.0639 31.9505 31.6927 31.7329L24.8191 27.7905Z" fill="#FAFAFA"/>
<path d="M32.1663 32.2321C32.2943 32.4369 32.3583 32.6801 32.3583 32.8849V34.2417C32.3583 34.4465 32.2815 34.6001 32.1663 34.6641L44.1087 27.8161C44.2239 27.7521 44.3007 27.5985 44.3007 27.3809V26.0369C44.3007 25.8321 44.2239 25.5889 44.1087 25.3841L32.1663 32.2321Z" fill="#F0F0F0"/>
<path d="M17.4724 20.0971L17.4084 21.0059L25.4724 25.3323L25.6516 24.7947L17.4724 20.0971Z" fill="#EBEBEB"/>
<path d="M25.5492 25.0124L17.7284 20.494L16.3716 21.2876L24.346 25.9468L25.5492 25.0124Z" fill="white"/>
<path d="M22.874 25.4604L22.106 34.5228C22.106 34.702 22.234 34.9324 22.3876 35.022L26.9316 37.646C26.9956 37.6844 27.0724 37.71 27.162 37.71L24.346 26.2412C24.2564 26.2412 24.1796 26.2156 24.1028 26.1772L23.7828 25.9852L22.874 25.4604Z" fill="#E0E0E0"/>
<path d="M24.6915 26.1771L25.4979 25.4859L26.0867 24.9739C26.1507 24.8843 26.2275 24.8075 26.1891 24.7307L28.9667 36.1099V36.1227C29.0051 36.1995 29.0179 36.3787 28.9027 36.4427L27.5075 37.6459C27.4179 37.6971 27.2771 37.7227 27.1619 37.7099L24.3459 26.2411C24.4611 26.2539 24.5891 26.2283 24.6915 26.1771Z" fill="#F0F0F0"/>
<path d="M26.0868 24.6411C26.2532 24.7307 26.2148 24.8331 26.0868 24.9739L24.6916 26.1771C24.5252 26.2667 24.2692 26.2667 24.1156 26.1771L22.874 25.4603C22.7204 25.3707 22.682 25.2427 22.81 25.1659C22.938 25.0891 23.1684 25.1147 23.3348 25.2043L24.3076 25.7675C24.3588 25.7931 24.4484 25.7931 24.4996 25.7675L25.5236 24.8715C25.5748 24.8459 25.5748 24.7947 25.5236 24.7691L17.4724 20.0971L17.8564 19.8667L26.0868 24.6411Z" fill="#FAFAFA"/>
<path d="M15.1426 20.5329L22.8354 24.9745V39.5921L15.1426 35.1505V20.5329Z" fill="#EBEBEB"/>
<path d="M22.5794 25.2176L15.1426 20.9424C14.7586 21.3861 14.1911 21.6976 13.4402 21.8768L20.8258 26.1264C20.8258 26.1264 21.2994 26.0112 22.5794 25.2176Z" fill="white"/>
<path d="M20.1091 26.1008C20.5059 26.3312 21.1459 26.3312 21.5299 26.1008L22.7843 25.384C23.1811 25.1536 23.1811 24.7824 22.7843 24.5648L15.4499 20.3536L15.1427 20.5328L22.3619 24.6928C22.5923 24.8336 22.5923 25.0512 22.3619 25.192L21.1971 25.8448C20.9539 25.9856 20.5699 25.9856 20.3395 25.8448L13.1203 21.6848L12.7747 21.8896L20.1091 26.1008Z" fill="#FAFAFA"/>
<path d="M12.7747 21.8896V36.52L20.1091 40.7312C20.5059 40.9488 21.1459 40.9488 21.5299 40.7312L22.7843 40.0016C22.9891 39.8992 23.0787 39.7456 23.0787 39.592V24.9744C23.0787 25.1152 22.9891 25.2688 22.7843 25.384L21.5299 26.1008C21.1459 26.3312 20.5059 26.3312 20.1091 26.1008L12.7747 21.8896Z" fill="#EBEBEB"/>
<path d="M20.8259 26.2672C21.0819 26.2672 21.3379 26.216 21.5299 26.1008L22.7843 25.384C22.9891 25.2688 23.0787 25.1152 23.0787 24.9744V39.592C23.0787 39.7456 22.9891 39.8992 22.7843 40.0016L21.5299 40.7312C21.3379 40.8336 21.0819 40.8976 20.8259 40.8976V26.2672Z" fill="#F0F0F0"/>
<path d="M82.688 79.3472C82.5216 76.2752 81.152 70.144 82.944 64.4736C83.8528 61.5936 85.952 58.5344 89.0624 57.6768C90.1632 57.3696 91.52 57.4208 92.0576 58.6752C92.1472 58.88 92.1984 59.1104 92.224 59.3408C92.288 60.288 91.8528 61.1328 91.3664 61.9136C90.2656 63.6928 88.8704 65.28 87.7568 67.0464C87.1552 67.9808 86.656 68.9664 86.208 69.9904" stroke="#27DEBF" stroke-width="0.2304" stroke-miterlimit="10"/>
<path d="M82.6111 81.3569C82.6111 81.7281 82.7135 82.1889 82.6367 82.5345C82.6111 82.6369 82.5855 82.7521 82.6367 82.8545C82.6751 82.9569 82.8159 83.0081 82.8927 82.9313C82.9567 82.8801 83.0079 82.4833 83.0463 82.3809C83.1231 82.1761 83.2511 81.9585 83.3407 81.7537C83.5455 81.3441 83.7631 80.9388 83.9935 80.5377C84.4671 79.7185 85.0047 78.9249 85.5807 78.1697C86.7199 76.6721 88.0511 75.3409 89.5359 74.1889C91.1487 72.9601 92.9407 71.9489 94.5151 70.6689C94.9759 70.2849 95.4495 69.8625 95.6415 69.2993C95.9359 68.4545 95.5519 67.4689 94.8479 66.9057C94.1439 66.3553 93.1967 66.1761 92.3007 66.2401C91.4559 66.3041 90.3039 66.6753 89.3567 67.1873C87.4367 68.2369 86.1055 69.8625 85.0559 71.7057C83.6351 74.1633 82.8287 76.9537 82.6111 79.7697C82.6111 80.2988 82.6111 80.8278 82.6111 81.3569Z" stroke="#27DEBF" stroke-width="0.2304" stroke-miterlimit="10"/>
<path d="M93.6063 67.776C89.9583 68.8256 84.5567 72.9984 82.6111 80.768" stroke="#27DEBF" stroke-width="0.2304" stroke-linecap="round" stroke-linejoin="round"/>
<path d="M89.856 59.3409C87.8976 60.9025 83.2 65.8561 82.5984 73.8817" stroke="#27DEBF" stroke-width="0.2304" stroke-linecap="round" stroke-linejoin="round"/>
<path d="M81.8943 42.2655L67.6607 34.0607C67.3535 33.8815 67.0847 33.8687 66.8799 33.9839C66.7007 34.0863 66.0479 34.4703 65.8559 34.5727C65.6639 34.6879 65.5359 34.9311 65.5359 35.2767V74.2399C65.5359 74.9311 66.0223 75.7887 66.6367 76.1343L80.8703 84.3391C81.1647 84.5183 81.4463 84.5311 81.6383 84.4159C81.8175 84.3135 82.4831 83.9295 82.6623 83.8143C82.8671 83.6991 82.9823 83.4559 82.9823 83.1103V44.1599C82.9823 43.4559 82.4959 42.6111 81.8943 42.2655Z" fill="#263238"/>
<path d="M68.6208 74.9055L67.584 75.4943V78.7455C67.584 78.9119 67.712 79.1295 67.8656 79.2191L68.3392 79.4879C68.4928 79.5775 68.736 79.5775 68.8896 79.4879L69.3632 79.2191C69.5168 79.1295 69.6832 78.9247 69.7472 78.7583L70.6688 76.0959L68.6208 74.9055Z" fill="#263238"/>
<path d="M67.584 78.7454C67.584 78.9118 67.712 79.1294 67.8656 79.219L68.3392 79.4878C68.4928 79.5774 68.6592 79.5134 68.7232 79.347L69.6448 76.6846L67.584 75.4942V78.7454Z" fill="#37474F"/>
<path d="M78.8736 80.8191L77.8496 81.4079V84.6463C77.8496 84.8255 77.9776 85.0431 78.1312 85.1327L78.6048 85.4015C78.7584 85.4911 79.0016 85.4911 79.1552 85.4015L79.6288 85.1327C79.7824 85.0431 79.9488 84.8383 80.0128 84.6719L80.9344 82.0095L78.8736 80.8191Z" fill="#263238"/>
<path d="M77.8496 84.6463C77.8496 84.8255 77.9776 85.043 78.1312 85.1326L78.6048 85.4015C78.7584 85.4911 78.9248 85.427 78.9888 85.2606L79.9104 82.5983L77.8496 81.4079V84.6463Z" fill="#37474F"/>
<path d="M66.7008 34.6752L80.9344 42.88C81.536 43.2256 82.0352 44.0704 82.0352 44.7744V83.7248C82.0352 84.0704 81.9072 84.3136 81.7152 84.4288C81.5104 84.544 81.2416 84.5312 80.9344 84.352L66.7008 76.1472C66.0992 75.8016 65.6128 74.9568 65.6128 74.2528V35.3024C65.6128 34.944 65.728 34.7008 65.9328 34.5856C66.1248 34.4832 66.4064 34.496 66.7008 34.6752Z" fill="#37474F"/>
<path d="M46.0288 87.9359L61.4272 96.8191L82.9824 84.3775L81.9584 83.7887L66.56 74.8927L46.0288 86.7455V87.9359Z" fill="#455A64"/>
<path d="M61.4272 96.8191V95.6287L82.9824 83.1871V84.3775L61.4272 96.8191Z" fill="#263238"/>
<path d="M61.4524 95.0401C64.3324 90.6881 64.166 82.9825 63.9228 81.6897C63.9228 81.6897 65.1388 89.8305 66.6364 92.1473" stroke="#FAFAFA" stroke-width="0.192" stroke-miterlimit="10"/>
<path d="M64.4348 84.6465C64.934 87.0145 70.5404 88.6913 70.5404 88.6913" stroke="#FAFAFA" stroke-width="0.192" stroke-miterlimit="10"/>
<path d="M63.8845 87.0018C64.0381 86.6178 64.8189 86.5666 64.9725 87.1938C64.9725 87.1938 65.0621 86.0418 65.7021 86.3618" stroke="#FAFAFA" stroke-width="0.192" stroke-miterlimit="10"/>
<path d="M63.6541 88.6914C63.9485 88.077 65.0109 87.7314 65.4845 89.2034C65.4845 89.2034 65.5485 86.5666 67.2893 87.3602" stroke="#FAFAFA" stroke-width="0.192" stroke-miterlimit="10"/>
<path d="M63.1675 91.0209C63.7691 89.8433 65.4459 89.3825 65.8683 90.4577C65.8811 89.1265 67.4171 87.4369 69.2731 88.2561" stroke="#FAFAFA" stroke-width="0.192" stroke-miterlimit="10"/>
<path d="M62.1309 93.837C62.8477 92.5442 64.6013 90.2018 66.1245 91.1362" stroke="#FAFAFA" stroke-width="0.192" stroke-miterlimit="10"/>
<path d="M80.9344 71.3343V72.5247L61.4272 83.7887L46.0288 74.8927V73.7023L65.536 62.4511L80.9344 71.3343Z" fill="#263238"/>
<path d="M80.9344 71.3343L61.4272 82.5983L46.0288 73.7023L65.536 62.4511L80.9344 71.3343Z" fill="#455A64"/>
<path d="M80.9344 58.304V59.4816L61.4272 70.7456L46.0288 61.8496V60.672L65.536 49.408L80.9344 58.304Z" fill="#263238"/>
<path d="M80.9344 58.304L61.4272 69.5552L46.0288 60.672L65.536 49.408L80.9344 58.304Z" fill="#455A64"/>
<path d="M61.363 54.1055L47.1294 45.9007C46.8222 45.7215 46.5534 45.7087 46.3614 45.8239C46.1694 45.9263 45.5166 46.3103 45.3246 46.4127C45.1326 46.5279 45.0046 46.7711 45.0046 47.1167V86.0799C45.0046 86.7711 45.5038 87.6159 46.1054 87.9743L60.339 96.1791C60.6334 96.3455 60.915 96.3711 61.107 96.2559C61.299 96.1407 61.9518 95.7695 62.1438 95.6543C62.3358 95.5391 62.4638 95.2959 62.4638 94.9503V55.9999C62.4638 55.2959 61.9646 54.4511 61.363 54.1055Z" fill="#263238"/>
<path opacity="0.2" d="M61.427 60.0831L62.4638 59.4815V55.9231L61.427 56.5247V60.0831Z" fill="black"/>
<path opacity="0.2" d="M81.9583 48.2303L82.9951 47.6415V44.0831L81.9583 44.6719V48.2303Z" fill="black"/>
<path d="M48.0892 86.7459L47.0652 87.3347V90.5731C47.0652 90.7523 47.1804 90.9699 47.334 91.0467L47.8076 91.3283C47.9612 91.4179 48.2044 91.4179 48.358 91.3283L48.8444 91.0467C48.9852 90.9699 49.1644 90.7651 49.2156 90.5987L50.1372 87.9363L48.0892 86.7459Z" fill="#263238"/>
<path d="M47.0652 90.573C47.0652 90.7522 47.1804 90.9698 47.334 91.0466L47.8076 91.3282C47.9612 91.4178 48.1276 91.3538 48.1916 91.1874L49.1132 88.525L47.0652 87.3346V90.573Z" fill="#37474F"/>
<path d="M58.3549 92.6591L57.3181 93.2479L57.3309 96.4863C57.3309 96.6655 57.4461 96.8831 57.5997 96.9599L58.0733 97.2415C58.2269 97.3311 58.4701 97.3311 58.6237 97.2415L59.1101 96.9599C59.2509 96.8831 59.4173 96.6783 59.4813 96.5119L60.4029 93.8495L58.3549 92.6591Z" fill="#263238"/>
<path d="M57.3309 96.4863C57.3309 96.6655 57.4461 96.8831 57.5997 96.9599L58.0733 97.2415C58.2269 97.3311 58.3933 97.2671 58.4573 97.1007L59.3789 94.4383L57.3181 93.2479L57.3309 96.4863Z" fill="#37474F"/>
<path d="M46.1054 46.4895L60.339 54.6943C60.9406 55.0399 61.427 55.8975 61.427 56.5887V95.5391C61.427 95.8975 61.427 96.8191 61.427 96.8191C61.427 96.8191 60.6334 96.3455 60.339 96.1791L46.1054 87.9743C45.5038 87.6159 45.0046 86.7711 45.0046 86.0799V47.1167C45.0046 46.7711 45.1326 46.5279 45.3246 46.4127C45.5294 46.2975 45.7982 46.3103 46.1054 46.4895Z" fill="#37474F"/>
<path opacity="0.2" d="M60.339 54.6943L46.1054 46.4895C45.7982 46.3103 45.5294 46.2975 45.3246 46.4127C45.1326 46.5279 45.0046 46.7711 45.0046 47.1167V50.5983L61.427 60.0831V56.5887C61.427 55.8975 60.9406 55.0399 60.339 54.6943Z" fill="black"/>
<path d="M68.6204 52.9663L79.91 46.4511V58.3039" stroke="#FAFAFA" stroke-width="0.192" stroke-linecap="round" stroke-linejoin="round"/>
<path d="M77.8493 55.3343L79.9101 46.4511L75.8013 53.5551" stroke="#FAFAFA" stroke-width="0.192" stroke-linecap="round" stroke-linejoin="round"/>
<path d="M79.91 46.4511L73.7532 52.3775" stroke="#FAFAFA" stroke-width="0.192" stroke-linecap="round" stroke-linejoin="round"/>
<path d="M79.9099 56.4095C79.9099 54.7455 78.0155 54.6559 78.0155 54.6559C78.1307 54.1567 78.0027 53.3375 77.3883 52.8255C76.7739 52.3007 76.3643 52.5823 76.2363 52.7999C76.2363 52.7999 76.3643 51.2767 75.0459 51.1231C75.0459 51.1231 75.9163 49.5103 75.0459 49.2543" stroke="#FAFAFA" stroke-width="0.192" stroke-linecap="round" stroke-linejoin="round"/>
<path d="M79.9101 53.8495C79.8333 53.0047 79.1933 51.9295 78.5149 52.4415C78.5149 52.4415 78.6941 50.5855 77.3757 50.8287C77.3757 50.8287 77.9901 49.1135 76.6973 49.5359C76.6973 49.5359 77.6317 48.3583 76.9021 48.1791" stroke="#FAFAFA" stroke-width="0.192" stroke-linecap="round" stroke-linejoin="round"/>
<path d="M85.4143 42.304C85.4271 42.0736 85.2735 41.8432 84.9663 41.664L69.7087 32.8576C69.1071 32.512 68.1215 32.512 67.5199 32.8576L44.0447 46.4128C43.7503 46.5792 43.5967 46.8096 43.5967 47.04C43.5967 47.2576 43.5967 48.0128 43.5967 48.2304C43.5967 48.4608 43.7503 48.6784 44.0447 48.8576L59.3151 57.664C59.9167 58.0224 60.8895 58.0224 61.5039 57.664L84.9663 44.1216C85.2735 43.9424 85.4271 43.712 85.4143 43.4816C85.4143 43.2768 85.4143 42.5088 85.4143 42.304Z" fill="#37474F"/>
<path d="M59.3151 56.4864L44.0447 47.68C43.4431 47.3216 43.4431 46.7584 44.0447 46.4128L67.5199 32.8576C68.1215 32.512 69.1071 32.512 69.7087 32.8576L84.9663 41.664C85.5807 42.0224 85.5807 42.5856 84.9663 42.9312L61.5039 56.4864C60.8895 56.832 59.9167 56.832 59.3151 56.4864Z" fill="#455A64"/>
<path opacity="0.1" d="M81.9584 45.8496L74.7776 54.7456L62.464 61.8624L62.4512 57.1136L81.9584 45.8496Z" fill="black"/>
<path opacity="0.1" d="M80.9343 59.4816L74.7775 67.776L62.4639 74.8928V70.1568L80.9343 59.4816Z" fill="black"/>
<path opacity="0.1" d="M80.9343 72.5249L74.7775 80.8193L62.4639 87.9361V83.1873L80.9343 72.5249Z" fill="black"/>
<path d="M52.6849 98.4193L33.7921 109.325L12.5312 97.0113L31.4113 86.1185L52.6849 98.4193Z" fill="#27DEBF"/>
<path opacity="0.5" d="M52.6849 98.4193L33.7921 109.325L12.5312 97.0113L31.4113 86.1185L52.6849 98.4193Z" fill="black"/>
<path d="M31.4112 71.3345V86.1185L12.5312 97.0113V82.2401L31.4112 71.3345Z" fill="#27DEBF"/>
<path opacity="0.2" d="M31.4112 71.3345V86.1185L12.5312 97.0113V82.2401L31.4112 71.3345Z" fill="black"/>
<path d="M33.7921 94.5408V109.325L12.5312 97.0112V82.24L33.7921 94.5408Z" fill="#27DEBF"/>
<path opacity="0.4" d="M33.7921 94.5408V109.325L12.5312 97.0112V82.24L33.7921 94.5408Z" fill="black"/>
<path d="M52.6847 83.6353V98.4193L31.4111 86.1185V71.3345L52.6847 83.6353Z" fill="#27DEBF"/>
<path opacity="0.4" d="M52.6847 83.6353V98.4193L31.4111 86.1185V71.3345L52.6847 83.6353Z" fill="black"/>
<path d="M52.6848 98.4193V83.6353L33.792 94.5408V109.325L52.6848 98.4193Z" fill="#27DEBF"/>
<path opacity="0.2" d="M52.6848 98.4193V83.6353L33.792 94.5408V109.325L52.6848 98.4193Z" fill="black"/>
<path d="M31.4111 71.3344L31.4367 63.1552L52.6591 75.4688L52.6847 83.6352L31.4111 71.3344Z" fill="#27DEBF"/>
<path opacity="0.2" d="M31.4111 71.3344L31.4367 63.1552L52.6591 75.4688L52.6847 83.6352L31.4111 71.3344Z" fill="black"/>
<path d="M33.792 94.5409L35.5712 87.3857L54.2848 76.5825L52.6848 83.6353L33.792 94.5409Z" fill="#27DEBF"/>
<path opacity="0.3" d="M33.792 94.5409L35.5712 87.3857L54.2848 76.5825L52.6848 83.6353L33.792 94.5409Z" fill="black"/>
<path d="M12.5311 82.2401L10.2783 74.8161L29.1583 63.9105L31.4111 71.3345L12.5311 82.2401Z" fill="#27DEBF"/>
<path opacity="0.1" d="M12.5311 82.2401L10.2783 74.8161L29.1583 63.9105L31.4111 71.3345L12.5311 82.2401Z" fill="black"/>
<path d="M12.5312 82.24L8.0896 76.096L29.3504 88.4096L33.792 94.5408L12.5312 82.24Z" fill="#27DEBF"/>
<path opacity="0.5" d="M12.5312 82.24L8.0896 76.096L29.3504 88.4096L33.792 94.5408L12.5312 82.24Z" fill="black"/>
<g opacity="0.7">
<path d="M39.3596 104.922C39.2956 104.922 39.2444 104.87 39.2444 104.806V102.208C39.2444 102.144 39.2956 102.093 39.3596 102.093C39.4236 102.093 39.4748 102.144 39.4748 102.208V104.806C39.4748 104.87 39.4236 104.922 39.3596 104.922Z" fill="white"/>
<path d="M39.0143 103.104C38.9972 103.104 38.9844 103.104 38.9759 103.104C38.9119 103.078 38.8863 103.002 38.9119 102.95L39.3215 101.99L39.7823 102.528C39.8207 102.566 39.8207 102.643 39.7695 102.682C39.7183 102.733 39.6543 102.72 39.6031 102.682L39.3855 102.426L39.1295 103.04C39.1039 103.078 39.0655 103.104 39.0143 103.104Z" fill="white"/>
<path d="M40.4345 104.307C40.3705 104.307 40.3193 104.256 40.3193 104.192V101.594C40.3193 101.53 40.3705 101.478 40.4345 101.478C40.4985 101.478 40.5497 101.53 40.5497 101.594V104.192C40.5497 104.256 40.4985 104.307 40.4345 104.307Z" fill="white"/>
<path d="M40.089 102.502C40.0719 102.502 40.0549 102.498 40.0378 102.49C39.9866 102.464 39.961 102.387 39.9866 102.336L40.3962 101.376L40.857 101.914C40.8954 101.965 40.8954 102.029 40.8442 102.08C40.793 102.118 40.729 102.118 40.6778 102.067L40.4602 101.811L40.1914 102.426C40.1786 102.464 40.1402 102.502 40.089 102.502Z" fill="white"/>
</g>
<g opacity="0.7">
<path d="M36.262 106.688C36.2193 106.688 36.1766 106.675 36.134 106.65C36.0444 106.611 35.9932 106.509 35.9932 106.381V106.061C35.9932 105.997 36.0444 105.946 36.1084 105.946C36.1724 105.946 36.2236 105.997 36.2236 106.061V106.381C36.2236 106.419 36.2364 106.445 36.2492 106.458C36.262 106.458 36.2876 106.458 36.326 106.432C36.4284 106.381 36.5436 106.151 36.5436 105.907V104.576C36.5436 104.512 36.5948 104.461 36.6588 104.461C36.7228 104.461 36.774 104.512 36.774 104.576V105.907C36.774 106.215 36.6332 106.522 36.4412 106.637C36.3814 106.671 36.3217 106.688 36.262 106.688Z" fill="white"/>
<path fill-rule="evenodd" clip-rule="evenodd" d="M35.0459 105.613V105.421C35.0459 104.474 35.7115 103.322 36.5179 102.848C36.9403 102.605 37.3371 102.567 37.6443 102.746C37.9515 102.925 38.1307 103.283 38.1307 103.77V103.834L35.0459 105.613ZM37.2219 102.861C37.0427 102.861 36.8507 102.925 36.6459 103.04C35.9419 103.45 35.3659 104.384 35.2891 105.203L37.8875 103.706C37.8747 103.335 37.7467 103.066 37.5291 102.938C37.4352 102.887 37.3328 102.861 37.2219 102.861Z" fill="white"/>
</g>
<path opacity="0.7" d="M8.0896 76.096L29.3504 88.4096L33.792 94.5408L29.12 88.6272L8.0896 76.096Z" fill="white"/>
<path opacity="0.7" d="M52.6848 83.6353L33.792 94.5408V109.325L34.1504 94.8353L52.6848 83.6353Z" fill="white"/>
<path d="M24.9729 77.7216C26.9185 77.44 28.6977 76.1984 29.8241 74.6112C30.3489 73.8688 30.7585 73.0496 30.9761 72.1664C31.1809 71.36 31.3089 70.464 31.0913 69.6448C30.7457 68.2368 29.4401 67.4048 28.0705 67.2256C27.3793 67.136 26.6625 67.2 25.9969 67.4304C25.2929 67.6736 24.7169 68.1216 24.2817 68.7232C24.0513 69.0432 23.8209 69.4272 23.8081 69.824C23.7953 70.1824 24.0513 70.4256 24.3841 70.4768C24.7809 70.5536 25.2161 70.3744 25.5489 70.1824C25.9756 69.9435 26.3425 69.632 26.6497 69.248C27.2641 68.48 27.8017 67.5328 28.0705 66.56C28.3009 65.7408 28.2497 64.832 28.0705 63.9872C27.8913 63.1424 27.5329 62.2592 26.9057 61.632C26.2529 60.9792 25.3185 60.6592 24.4225 60.5312C23.5009 60.416 22.5409 60.4928 21.6705 60.8C21.2865 60.928 20.9025 61.1072 20.6081 61.376C20.3905 61.5808 20.1345 61.9264 20.2241 62.2592C20.3265 62.6176 20.8001 62.7328 21.1329 62.6944C21.6193 62.6304 22.0801 62.336 22.4129 62.0032C22.7969 61.632 23.1297 61.184 23.3857 60.7232C23.5649 60.3776 23.6801 60.0064 23.6673 59.6096C23.6417 57.984 21.8497 56.9344 20.4417 56.64C20.0577 56.5632 19.6737 56.5376 19.2897 56.5632C19.1489 56.576 19.2385 56.7808 19.3409 56.768C20.0833 56.7168 20.8385 56.9344 21.4913 57.2672C22.1313 57.5744 22.7329 58.048 23.0785 58.6752C23.4369 59.3152 23.3985 60.0448 23.0273 60.6592C22.7713 61.0816 22.4641 61.5168 22.0929 61.8496C21.7857 62.1184 21.3377 62.4384 20.9025 62.4128C20.7745 62.4 20.6081 62.336 20.5569 62.1952C20.5057 62.0288 20.6337 61.8368 20.7105 61.7344C20.9153 61.4784 21.2353 61.3248 21.5425 61.184C22.2849 60.8512 23.1553 60.7488 23.9745 60.7872C24.8065 60.8256 25.6769 61.0432 26.3553 61.5552C26.9953 62.0416 27.3793 62.784 27.6097 63.5264C27.8401 64.3072 27.9425 65.152 27.8273 65.9584C27.7121 66.7904 27.3281 67.5712 26.9057 68.2752C26.4321 69.056 25.8305 69.7984 24.9473 70.1184C24.7169 70.1952 24.2561 70.3104 24.1793 69.9904C24.0897 69.6704 24.3329 69.2736 24.4993 69.0304C24.8705 68.4672 25.3697 68.032 25.9841 67.776C26.5729 67.5328 27.2257 67.4432 27.8529 67.4944C29.0561 67.584 30.2849 68.2112 30.7073 69.4016C30.9505 70.1056 30.8993 70.8864 30.7713 71.6032C30.6305 72.4096 30.3233 73.1776 29.9265 73.8688C29.0561 75.3664 27.6993 76.4928 26.1121 77.184C25.7281 77.3504 25.3441 77.4912 24.9473 77.6192C24.9089 77.632 24.9217 77.7344 24.9729 77.7216Z" fill="#E0E0E0"/>
<path d="M16.832 55.5008C15.7952 55.424 14.4 56.2304 14.8992 56.8192C15.3984 57.408 16.7296 56.4608 16.7296 56.4608C16.7296 56.4608 16.6016 57.6512 17.0368 57.7792C17.4848 57.92 18.0608 56.7808 17.6256 56.0512C17.6256 56.0512 18.2912 56.3456 18.9056 55.8976C19.52 55.4368 18.8672 55.0016 17.9968 55.0784C17.9968 55.0784 18.624 53.0432 17.3568 53.4272C16.7296 53.6192 16.512 54.3616 16.832 55.5008Z" fill="#27DEBF"/>
<path opacity="0.7" d="M16.832 55.5008C15.7952 55.424 14.4 56.2304 14.8992 56.8192C15.3984 57.408 16.7296 56.4608 16.7296 56.4608C16.7296 56.4608 16.6016 57.6512 17.0368 57.7792C17.4848 57.92 18.0608 56.7808 17.6256 56.0512C17.6256 56.0512 18.2912 56.3456 18.9056 55.8976C19.52 55.4368 18.8672 55.0016 17.9968 55.0784C17.9968 55.0784 18.624 53.0432 17.3568 53.4272C16.7296 53.6192 16.512 54.3616 16.832 55.5008Z" fill="white"/>
<path d="M17.7792 55.936C17.728 55.8763 17.6683 55.8251 17.6 55.7824C17.5147 55.7141 17.4251 55.6459 17.3312 55.5776C17.2459 55.5179 17.1563 55.4624 17.0624 55.4112C17.0027 55.3771 16.943 55.3472 16.8832 55.3216C16.7936 55.2832 16.7168 55.2704 16.6272 55.2832C16.5376 55.296 16.4608 55.3984 16.5248 55.488C16.6016 55.5904 16.704 55.6032 16.7936 55.6544C16.8363 55.68 16.8832 55.7056 16.9344 55.7312C17.024 55.7824 17.1136 55.8464 17.1904 55.9104C17.28 55.9744 17.3696 56.0384 17.4592 56.1024C17.6 56.2048 17.7408 56.3072 17.8944 56.3712C17.9072 56.3712 17.9328 56.3712 17.9456 56.3584C18.048 56.256 17.856 56.0128 17.7792 55.936Z" fill="#455A64"/>
<path d="M99.4048 27.3409C98.2784 28.8385 96.7808 37.1201 96.2176 39.7697C93.4912 39.6929 89.856 39.5649 88.4736 39.4241C86.9504 39.2577 83.6608 38.9505 82.048 39.1553C78.0544 39.6801 78.2208 42.2913 78.3104 42.9825C78.4128 43.7633 78.976 44.1217 81.1136 43.6353C81.6 43.5329 82.0864 43.4689 82.5856 43.4689C82.7904 43.4561 83.2256 43.3537 83.392 43.5329C83.6352 43.8017 82.9056 44.2241 82.7264 44.3393C82.432 44.5185 82.1376 44.7617 82.0864 45.0945C82.0608 45.2097 82.0864 45.3633 82.1888 45.4273C82.2784 45.4913 82.4064 45.4657 82.5088 45.4401C83.4944 45.2097 84.4416 44.8513 85.3248 44.3649C85.6704 44.1857 86.0032 43.9809 86.3744 43.8657C86.9376 43.6865 87.5136 43.7889 88.064 43.7889C89.2672 43.7889 95.616 44.4161 98.432 44.6977C100.39 44.9025 100.595 42.9697 101.274 41.0241C102.106 38.5921 104.064 25.8561 104.064 25.8561C102.093 25.5745 100.736 25.5489 99.4048 27.3409Z" fill="#FFA8A7"/>
<path d="M104.09 25.6513C103.155 25.4849 101.031 25.2161 99.8657 26.5089C98.7137 27.8017 98.4321 29.1585 97.9201 31.1169C97.4209 33.0753 96.5249 36.5825 96.5249 36.5825C96.5249 36.5825 98.0097 38.7329 102.682 38.1185L104.09 25.6513Z" fill="#37474F"/>
<path d="M115.827 93.3505H112.538L111.603 86.2209L115.738 86.0545L115.827 93.3505Z" fill="#FFA8A7"/>
<path d="M104.922 89.7921C104.358 90.7521 102.566 90.6753 101.069 90.3297L100.902 83.3281L105.293 83.1488L104.922 89.7921Z" fill="#FFA8A7"/>
<path d="M115.61 48.2945C115.725 51.3281 115.315 69.2737 115.315 69.2737C115.43 70.1441 116.326 71.6545 116.518 74.8033C116.787 79.3473 115.866 89.1009 115.866 89.1009C115.866 89.1009 113.984 90.0737 111.949 89.3313C111.949 89.3313 109.888 75.2385 109.146 70.7457C108.493 66.8289 107.661 56.3201 107.661 56.3201L106.035 69.7857C106.035 69.7857 106.496 71.9233 106.406 74.6241C106.342 76.7233 105.139 86.8865 105.139 86.8865C105.139 86.8865 103.142 87.6417 100.941 86.9889C100.941 86.9889 99.968 71.2065 99.8528 69.2993C99.7248 67.1105 99.8144 47.8593 99.8144 47.8593L115.61 48.2945Z" fill="#27DEBF"/>
<path opacity="0.2" d="M107.661 56.32C107.661 56.32 104.794 55.5136 102.835 53.76C102.835 53.76 103.744 55.3216 106.342 56.7168L106.202 68.4672L107.661 56.32Z" fill="black"/>
<path d="M108.787 99.2895C108.684 99.4047 108.748 100.109 108.876 100.301C109.004 100.493 109.785 101.107 111.142 101.145C112.435 101.197 113.587 100.966 114.329 100.454C115.072 99.9423 115.417 99.4047 115.456 98.6623C115.507 97.9199 115.392 97.2159 115.724 96.6271C116.019 96.1023 116.518 95.4879 116.62 95.1935C116.838 94.5663 116.569 93.6959 116.569 93.6959L108.787 99.2895Z" fill="#263238"/>
<path d="M112.076 92.7231C112.076 93.0047 112.038 93.2735 111.961 93.5551C111.795 94.1311 111.526 94.6815 111.232 95.2063C111.078 95.4751 110.912 95.7311 110.72 95.9871C110.348 96.4608 109.875 96.8703 109.478 97.3312C109.081 97.7919 108.748 98.3423 108.748 98.9439C108.723 99.9679 109.849 100.262 110.694 100.39C111.603 100.506 112.576 100.429 113.446 100.134C114.419 99.8143 115.097 99.0335 115.225 98.0479C115.264 97.7535 115.225 97.4719 115.251 97.1903C115.302 96.5375 115.609 95.9359 115.968 95.3855C116.185 95.0655 116.403 94.7455 116.544 94.3871C116.774 93.7471 116.544 93.0559 116.352 92.4415C116.185 91.9039 115.993 91.2895 115.801 91.3535C115.801 91.6351 115.814 91.6607 115.622 91.8655C115.379 92.1087 115.379 92.4671 115.123 92.6975C115.238 92.3647 115.238 92.2239 115.276 91.9679C115.289 91.8911 115.264 91.7375 115.212 91.6863C115.136 91.6095 115.008 91.5583 114.892 91.5327C114.483 91.4047 114.073 91.3279 113.651 91.2895C113.267 91.2639 112.819 91.2383 112.448 91.3279C112.332 91.3663 112.217 91.4303 112.153 91.5199C112.076 91.6223 112.064 91.7119 112.051 91.8655C112.051 92.0319 112.076 92.4543 112.076 92.7231Z" fill="#455A64"/>
<path d="M111.104 95.4239C111.475 95.1167 112.32 95.0783 112.78 95.1167C113.356 95.1551 113.843 95.3343 114.112 95.5263C114.24 95.6031 114.406 95.5903 114.496 95.4751C114.624 95.3471 114.598 95.1551 114.457 95.0527C114.163 94.8479 113.638 94.5791 112.947 94.5535C111.808 94.5279 111.488 94.7327 111.488 94.7327C111.488 94.7327 110.976 95.0911 111.104 95.4239Z" fill="#F5F5F5"/>
<path d="M110.272 96.4992C110.733 96.192 111.667 96.192 112.141 96.2304C112.717 96.2688 113.165 96.4736 113.433 96.6656C113.561 96.7424 113.715 96.7296 113.817 96.6144C113.945 96.4864 113.92 96.2944 113.779 96.192C113.485 95.9872 112.934 95.68 112.243 95.6544C111.091 95.616 110.809 95.8592 110.809 95.8592C110.809 95.8592 110.336 96.064 110.272 96.4992Z" fill="#F5F5F5"/>
<path d="M113.369 93.4527C112.576 93.4015 112.243 93.5039 111.936 93.6319C111.744 93.7471 111.616 94.0671 111.756 94.1439C112 93.9903 112.46 93.9135 113.011 93.9263C113.395 93.9263 113.868 94.0543 114.265 94.2079C114.355 94.2463 114.483 94.3103 114.585 94.3615C114.726 94.4255 114.892 94.3743 114.956 94.2335C115.008 94.1055 114.956 93.9647 114.841 93.9007C114.56 93.7471 113.996 93.4911 113.369 93.4527Z" fill="#F5F5F5"/>
<path d="M93.5805 94.1563C93.4525 94.3739 93.4653 94.7963 93.5805 95.0651C93.6957 95.3467 95.0525 96.1915 96.9341 96.1531C98.8285 96.1147 100.147 95.4235 100.889 94.9883C101.632 94.5403 102.374 94.4891 103.309 94.4763C104.243 94.4763 105.485 94.0667 105.715 93.6443C105.933 93.2219 105.741 92.4539 105.741 92.4539L93.5805 94.1563Z" fill="#263238"/>
<path d="M101.44 88.6523C101.388 88.6437 101.337 88.6309 101.286 88.6139C101.209 88.6011 101.12 88.5755 101.043 88.5883C100.953 88.6139 100.864 88.6651 100.8 88.7419C100.595 88.9467 100.454 89.2155 100.288 89.4715C99.8652 90.0859 99.0076 90.5851 98.086 91.0331C97.4588 91.3275 96.8444 91.5579 96.1916 91.8139C95.5388 92.0699 94.6684 92.2107 94.1436 92.5179C93.3884 92.9915 93.2348 94.2331 94.0412 94.7579C94.758 95.2187 96.6396 95.7691 98.662 95.2955C99.7628 95.0395 101.03 93.9387 102.464 93.9003C103.372 93.8619 105.113 93.6955 105.728 93.0299C105.958 92.7355 105.715 91.7499 105.523 90.9051C105.305 89.9707 105.395 88.5883 104.985 88.6011L104.96 89.0619C104.921 89.2027 104.601 89.3435 104.499 89.4459C104.371 89.5739 104.247 89.7061 104.128 89.8427C103.961 90.0091 103.795 90.1755 103.577 90.2779C103.219 90.4443 102.784 90.3419 102.4 90.2395C102.387 90.2395 102.592 89.5355 102.617 89.4587C102.63 89.4075 102.656 89.3435 102.643 89.2923C102.617 89.2283 102.579 89.1899 102.528 89.1515C102.195 88.8955 101.836 88.7675 101.44 88.6523Z" fill="#455A64"/>
<path d="M98.9565 90.5723C98.9565 90.5723 99.1101 90.2267 99.6477 90.1499C100.07 90.0987 100.787 90.4315 101.222 90.8283C101.401 90.9947 101.363 91.2891 101.145 91.3915C101.017 91.4555 100.864 91.4299 100.761 91.3275C100.467 91.0587 99.8269 90.5595 98.9565 90.5723Z" fill="#F5F5F5"/>
<path d="M97.6382 91.2251C97.6382 91.2251 97.9326 90.8283 98.4574 90.8539C98.4574 90.8539 99.5326 90.9435 100.173 91.5963C100.339 91.7627 100.313 92.0315 100.096 92.1339C99.9806 92.1979 99.827 92.1723 99.7246 92.0699C99.443 91.7883 98.867 91.1995 97.6382 91.2251Z" fill="#F5F5F5"/>
<path d="M96.1917 91.8139C96.1917 91.8139 96.5116 91.4427 97.0364 91.4811C97.0364 91.4811 98.0477 91.5707 98.6877 92.2235C98.8413 92.3899 98.8157 92.6587 98.6109 92.7611C98.4829 92.8251 98.3421 92.7995 98.2397 92.6971C97.9453 92.4155 97.4205 91.7755 96.1917 91.8139Z" fill="#F5F5F5"/>
<path d="M109.568 25.7149C110.784 25.8557 112.205 25.9197 113.357 26.0733C114.854 26.2653 116.006 27.8141 116.377 30.1949C116.774 32.8061 115.097 40.3325 115.097 40.3325L115.635 49.1901C113.459 50.7901 104.179 51.6349 99.5581 48.2941C99.5581 48.2941 99.6605 33.2157 100.019 30.8989C100.518 27.7117 101.299 25.7405 104.896 25.5101L109.568 25.7149Z" fill="#455A64"/>
<path d="M117.824 44.9157C117.44 45.5685 117.043 46.2213 116.633 46.8741C116.488 47.1131 116.339 47.352 116.185 47.5909C116.121 47.6677 115.968 47.8341 115.891 47.8981C115.699 48.0261 115.289 47.9493 115.059 47.9493C113.899 47.992 112.742 48.0773 111.59 48.2053C111.398 48.2309 111.181 48.2693 111.078 48.4229C110.963 48.6149 111.065 48.8709 111.245 48.9989C111.424 49.1269 111.654 49.1525 111.872 49.1781C112.205 49.2208 112.537 49.2635 112.87 49.3061C113.011 49.3189 113.152 49.3445 113.267 49.4341C113.625 49.7285 112.934 50.0741 112.729 50.2149C112.307 50.5093 111.872 50.7653 111.398 50.9573C109.325 51.8277 109.069 52.4677 109.453 53.1845C109.785 53.8117 111.219 56.1029 114.88 54.1317C116.352 53.3381 118.592 50.8421 119.616 49.6389C121.075 47.8981 123.571 43.9941 123.571 43.9941C124.979 42.0613 125.158 41.2677 125.197 40.4613C125.222 39.6421 120.845 33.4469 119.347 31.2709C117.862 29.0949 117.158 26.4453 113.357 26.0741C113.357 26.0741 111.923 30.6565 114.304 33.6133L119.833 41.3189C119.833 41.3189 118.361 44.0197 117.824 44.9157Z" fill="#FFA8A7"/>
<path d="M121.83 34.2277C121.126 33.2037 120.384 32.1541 119.667 31.1045C116.659 26.7141 116.915 25.9077 112.576 25.8565C112.192 26.4453 111.974 28.9797 112.55 31.5141C113.037 33.6517 114.842 35.1621 114.842 35.1621L117.018 38.1061C117.018 38.1061 118.349 38.0677 119.936 36.9029C121.536 35.7253 121.83 34.2277 121.83 34.2277Z" fill="#37474F"/>
<path d="M112.423 14.1697C111.603 13.0305 110.413 13.2225 110.413 13.2225L110.195 18.7265L109.837 20.7489L109.901 23.0145C109.901 23.0145 110.503 22.9889 110.874 22.2721C111.219 21.6193 112.154 18.4705 112.154 18.4705H112.141C112.999 15.8977 112.819 14.7329 112.423 14.1697Z" fill="#263238"/>
<path d="M109.939 18.7521C110.042 18.4065 110.144 18.2145 110.464 17.8689C110.784 17.5361 112.038 17.1649 112.602 18.2401C113.19 19.3153 112.218 20.7105 111.475 21.1329C110.528 21.6833 109.965 20.9409 109.965 20.9409L109.99 25.9969C109.542 27.0081 107.546 27.9297 106.355 27.7761C105.408 27.6609 104.538 26.9185 105.382 25.8305L105.318 24.3841C105.318 24.3841 104.051 24.6401 103.424 24.5761C102.374 24.4737 101.683 23.6801 101.312 22.5793C100.723 20.8001 100.454 19.3537 100.71 15.7953C100.979 11.8913 105.498 11.6225 108.019 13.0433C110.528 14.4513 109.939 18.7521 109.939 18.7521Z" fill="#FFA8A7"/>
<path d="M99.2769 11.7504C99.1617 10.8928 99.4561 9.98401 100.339 9.67681C101.018 9.44641 101.709 9.45921 102.323 10.0096C102.541 9.40801 103.13 8.96001 103.77 8.88321C104.397 8.81921 105.063 9.13921 105.408 9.68961C105.677 9.30561 105.997 9.07521 106.432 8.97281C106.944 8.84481 107.584 8.97281 107.955 9.24161C108.314 9.51041 108.749 10.0224 108.634 10.6624C109.363 10.368 110.106 10.6112 110.643 11.2512C110.963 11.6352 111.143 12.1216 111.155 12.6208C111.155 12.864 111.143 13.1584 111.04 13.3888C110.938 13.6192 110.733 13.7728 110.669 14.0288C110.618 14.2848 110.503 14.5152 110.528 14.7584C110.592 15.1936 110.682 15.616 110.746 16.0512C110.797 16.4736 110.848 16.896 110.848 17.3184C110.848 17.5104 110.707 17.6512 110.541 17.8048C110.259 18.048 110.208 18.176 110.003 18.5856C109.914 18.7648 109.824 19.2256 109.645 19.3536C109.095 19.7248 109.043 18.496 109.018 18.2528C108.992 18.0224 108.979 17.408 109.018 16.6144C108.851 16.6016 108.135 16.5888 107.571 15.9488C107.392 15.744 107.251 15.424 107.213 15.1424C107.187 14.976 107.162 14.8224 107.175 14.6432C106.816 15.232 105.984 15.4752 105.395 15.424C104.41 15.3344 104.064 14.912 103.911 14.6048C103.834 14.8736 103.719 15.232 103.514 15.4368C103.271 15.6928 102.925 15.8464 102.631 15.9488C102.08 16.1408 101.427 15.8976 101.018 15.488C100.608 16.064 99.5969 15.808 99.3665 15.6416C98.8545 15.2704 98.6881 14.8224 98.6369 14.1952C98.5729 13.5552 98.8289 12.8384 99.5329 12.5952C99.4049 12.3392 99.3153 12.0448 99.2769 11.7504Z" fill="#263238"/>
<path d="M105.319 24.384C105.319 24.384 107.597 23.808 108.391 23.3344C108.915 23.0272 109.338 22.5024 109.453 22.1696C109.453 22.1696 109.338 22.8736 108.877 23.5136C108.327 24.2944 105.344 24.9984 105.344 24.9984L105.319 24.384Z" fill="#F28F8F"/>
<path d="M105.447 18.5859C105.459 18.8675 105.69 19.0851 105.959 19.0723C106.24 19.0595 106.445 18.8163 106.432 18.5347C106.419 18.2403 106.189 18.0227 105.907 18.0355C105.639 18.0483 105.421 18.2915 105.447 18.5859Z" fill="#263238"/>
<path d="M104.679 22.2852C104.691 22.6564 104.999 22.938 105.344 22.9124C105.703 22.8996 105.971 22.5796 105.946 22.2212C105.933 21.85 105.639 21.5684 105.28 21.5812C104.935 21.6068 104.653 21.914 104.679 22.2852Z" fill="#F28F8F"/>
<path d="M105.856 16.8708L106.906 17.3956C107.047 17.0884 106.919 16.73 106.624 16.5892C106.343 16.4484 105.997 16.5764 105.856 16.8708Z" fill="#263238"/>
<path d="M101.261 17.3188L102.17 16.5508C101.965 16.2948 101.594 16.2564 101.351 16.4612C101.095 16.6788 101.056 17.0628 101.261 17.3188Z" fill="#263238"/>
<path d="M101.53 18.4836C101.543 18.7524 101.773 18.97 102.042 18.9572C102.311 18.9444 102.503 18.7012 102.49 18.4324C102.477 18.1508 102.259 17.946 101.991 17.9588C101.722 17.9716 101.517 18.202 101.53 18.4836Z" fill="#263238"/>
<path d="M103.911 17.9077L103.898 20.9413L102.298 20.4805L103.911 17.9077Z" fill="#F28F8F"/>
<path d="M99.8913 22.1441C99.9169 22.1441 99.9382 22.127 99.9553 22.0929C99.9937 22.0417 99.9809 21.9649 99.9297 21.9393L98.5345 21.0049C98.4833 20.9665 98.4065 20.9793 98.3681 21.0433C98.3297 21.0945 98.3553 21.1713 98.4065 21.2097L99.8017 22.1313C99.8273 22.1483 99.8572 22.1526 99.8913 22.1441Z" fill="#E0E0E0"/>
<path d="M99.7376 22.7459C99.7888 22.7331 99.8144 22.7075 99.8272 22.6563C99.84 22.5923 99.8016 22.5283 99.7376 22.5155L98.112 22.1443C98.048 22.1187 97.984 22.1571 97.9712 22.2211C97.9584 22.2851 97.9968 22.3491 98.0608 22.3747L99.6864 22.7459C99.7035 22.7544 99.7205 22.7544 99.7376 22.7459Z" fill="#E0E0E0"/>
<path d="M98.2275 23.8334C98.236 23.8334 98.2403 23.8291 98.2403 23.8206L99.8147 23.2574C99.8787 23.2318 99.9043 23.155 99.8787 23.1038C99.8659 23.0398 99.7891 23.0014 99.7251 23.027L98.1635 23.603C98.0995 23.6286 98.0739 23.6926 98.0867 23.7566C98.1123 23.8078 98.1763 23.8462 98.2275 23.8334Z" fill="#E0E0E0"/>
<path d="M84.9535 36.1088C84.9919 36.1984 85.0687 36.2624 85.1583 36.288C85.3503 36.3648 85.5551 36.2624 85.6319 36.0704L86.7967 33.1904C86.8735 32.9984 86.7712 32.7808 86.5792 32.7168C86.3872 32.6528 86.1695 32.7424 86.1055 32.9344L84.9279 35.8144C84.9023 35.9168 84.9023 36.0192 84.9535 36.1088Z" fill="#E0E0E0"/>
<path d="M83.0336 36.1088C83.0848 36.224 83.2128 36.3136 83.3664 36.3136C83.5712 36.3136 83.7376 36.1472 83.7376 35.9424L83.6992 32.3456C83.6864 32.1408 83.52 31.9744 83.3152 31.9744C83.1104 31.9872 82.9568 32.1536 82.9568 32.3584L82.9952 35.9424C82.9952 36.0022 83.008 36.0576 83.0336 36.1088Z" fill="#E0E0E0"/>
<path d="M79.7697 34.0992C79.7782 34.1163 79.7867 34.1334 79.7953 34.1504L81.5617 36.7104C81.6769 36.8768 81.9073 36.9152 82.0737 36.8128C82.2401 36.6976 82.2785 36.4544 82.1761 36.288L80.4097 33.728C80.2945 33.5616 80.0641 33.5232 79.8977 33.6256C79.7441 33.7408 79.6929 33.9456 79.7697 34.0992Z" fill="#E0E0E0"/>
</svg>
