<svg width="25" height="25" viewBox="0 0 25 25" fill="none" xmlns="http://www.w3.org/2000/svg">
<path fill-rule="evenodd" clip-rule="evenodd" d="M9.41653 2.93001C9.63742 3.43619 9.40615 4.02561 8.89996 4.2465C7.55255 4.83448 6.36969 5.74359 5.4548 6.89432C4.53991 8.04506 3.92083 9.4024 3.6517 10.8477C3.38256 12.2929 3.47157 13.7821 3.91093 15.1851C4.35029 16.588 5.12663 17.8619 6.17208 18.8955C7.21752 19.9291 8.50024 20.6908 9.90809 21.1141C11.3159 21.5374 12.8061 21.6094 14.2482 21.3238C15.6903 21.0382 17.0404 20.4036 18.1806 19.4757C19.3209 18.5477 20.2164 17.3545 20.789 16.0005C21.0041 15.4918 21.5908 15.2538 22.0995 15.4689C22.6081 15.684 22.8461 16.2708 22.631 16.7794C21.9312 18.4344 20.8367 19.8927 19.4431 21.0269C18.0495 22.1611 16.3993 22.9366 14.6367 23.2857C12.8742 23.6348 11.0529 23.5468 9.3322 23.0294C7.6115 22.512 6.04373 21.581 4.76596 20.3178C3.48819 19.0545 2.53933 17.4975 2.00234 15.7828C1.46534 14.0681 1.35656 12.248 1.6855 10.4815C2.01444 8.71509 2.77108 7.05612 3.88929 5.64966C5.00749 4.24321 6.45321 3.13208 8.10004 2.41343C8.60623 2.19254 9.19564 2.42382 9.41653 2.93001Z" fill="#545961"/>
<path fill-rule="evenodd" clip-rule="evenodd" d="M11.7929 1.79289C11.9804 1.60536 12.2348 1.5 12.5 1.5C13.9445 1.5 15.3749 1.78452 16.7095 2.33733C18.0441 2.89013 19.2567 3.70038 20.2782 4.72183C21.2996 5.74327 22.1099 6.9559 22.6627 8.29048C23.2155 9.62506 23.5 11.0555 23.5 12.5C23.5 13.0523 23.0523 13.5 22.5 13.5H12.5C11.9477 13.5 11.5 13.0523 11.5 12.5V2.5C11.5 2.23478 11.6054 1.98043 11.7929 1.79289ZM13.5 3.55573V11.5H21.4443C21.3505 10.6614 21.1391 9.83849 20.8149 9.05585C20.3626 7.96392 19.6997 6.97177 18.864 6.13604C18.0282 5.30031 17.0361 4.63738 15.9442 4.18508C15.1615 3.8609 14.3386 3.64949 13.5 3.55573Z" fill="#545961"/>
</svg>
