<svg width="25" height="23" viewBox="0 0 25 23" fill="none" xmlns="http://www.w3.org/2000/svg">
<path d="M20.9073 20.1235L20.9131 20.112L20.9186 20.1009L23.2654 7.41025C23.2592 7.2295 23.1187 7.09316 22.936 7.09316H4.22889L20.9073 20.1235ZM20.9073 20.1235L20.9036 20.1359M20.9073 20.1235L20.9036 20.1359M20.9036 20.1359C20.898 20.1547 20.8914 20.1782 20.8864 20.2035C20.8806 20.2231 20.8743 20.2469 20.8697 20.2721L20.8673 20.2854M20.9036 20.1359L20.8673 20.2854M20.8673 20.2854V20.299M20.8673 20.2854V20.299M20.8673 20.299V20.299M20.8673 20.299V20.299M20.8673 20.299V20.2991M20.8673 20.299V20.2991M20.8673 20.2991V20.2991M20.8673 20.2991V20.2991M20.8673 20.2991V20.2992M20.8673 20.2991V20.2992M20.8673 20.2992V20.2992M20.8673 20.2992V20.2992M20.8673 20.2992V20.2993M20.8673 20.2992V20.2993M20.8673 20.2993V20.2993M20.8673 20.2993V20.2993M20.8673 20.2993V20.2994M20.8673 20.2993V20.2994M20.8673 20.2994V20.2995M20.8673 20.2994V20.2995M20.8673 20.2995V20.2995M20.8673 20.2995V20.2995M20.8673 20.2995V20.2996M20.8673 20.2995V20.2996M20.8673 20.2996V20.2996M20.8673 20.2996V20.2996M20.8673 20.2996V20.2997M20.8673 20.2996V20.2997M20.8673 20.2997V20.2997M20.8673 20.2997V20.2997M20.8673 20.2997V20.2998M20.8673 20.2997V20.2998M20.8673 20.2998V20.2998M20.8673 20.2998V20.2998M20.8673 20.2998V20.2999M20.8673 20.2998V20.2999M20.8673 20.2999V20.3M20.8673 20.2999V20.3M20.8673 20.3V20.3M20.8673 20.3V20.3M20.8673 20.3V20.3001M20.8673 20.3V20.3001M20.8673 20.3001V20.3001M20.8673 20.3001V20.3001M20.8673 20.3001V20.3002M20.8673 20.3001V20.3002M20.8673 20.3002V20.3002M20.8673 20.3002V20.3002M20.8673 20.3002V20.3003M20.8673 20.3002V20.3003M20.8673 20.3003V20.3003M20.8673 20.3003V20.3003M20.8673 20.3003V20.3004M20.8673 20.3003V20.3004M20.8673 20.3004V20.3005M20.8673 20.3004V20.3005M20.8673 20.3005V20.3005M20.8673 20.3005V20.3005M20.8673 20.3005V20.3006M20.8673 20.3005V20.3006M20.8673 20.3006V20.3006M20.8673 20.3006V20.3006M20.8673 20.3006V20.3007M20.8673 20.3006V20.3007M20.8673 20.3007V20.3007M20.8673 20.3007V20.3007M20.8673 20.3007V20.3008M20.8673 20.3007V20.3008M20.8673 20.3008V20.3008M20.8673 20.3008V20.3008M20.8673 20.3008V20.3009M20.8673 20.3008V20.3009M20.8673 20.3009V20.301M20.8673 20.3009V20.301M20.8673 20.301V20.301M20.8673 20.301V20.301M20.8673 20.301V20.3011M20.8673 20.301V20.3011M20.8673 20.3011V20.3011M20.8673 20.3011V20.3011M20.8673 20.3011V20.3012M20.8673 20.3011V20.3012M20.8673 20.3012V20.3012M20.8673 20.3012V20.3012M20.8673 20.3012V20.3013M20.8673 20.3012V20.3013M20.8673 20.3013V20.3014M20.8673 20.3013V20.3014M20.8673 20.3014V20.3014M20.8673 20.3014V20.3014M20.8673 20.3014V20.3015M20.8673 20.3014V20.3015M20.8673 20.3015V20.3015M20.8673 20.3015V20.3015M20.8673 20.3015V20.3016M20.8673 20.3015V20.3016M20.8673 20.3016V20.3016M20.8673 20.3016V20.3016M20.8673 20.3016V20.3017M20.8673 20.3016V20.3017M20.8673 20.3017V20.3018M20.8673 20.3017V20.3018M20.8673 20.3018V20.3018M20.8673 20.3018V20.3018M20.8673 20.3018V20.3019M20.8673 20.3018V20.3019M20.8673 20.3019V20.3019M20.8673 20.3019V20.3019M20.8673 20.3019V20.302M20.8673 20.3019V20.302M20.8673 20.302V20.302M20.8673 20.302V20.302M20.8673 20.302V20.3021M20.8673 20.302V20.3021M20.8673 20.3021V20.3021M20.8673 20.3021V20.3021M20.8673 20.3021V20.3022M20.8673 20.3021V20.3022M20.8673 20.3022V20.3023M20.8673 20.3022V20.3023M20.8673 20.3023V20.3023M20.8673 20.3023V20.3023M20.8673 20.3023V20.3024M20.8673 20.3023V20.3024M20.8673 20.3024V20.3024M20.8673 20.3024V20.3024M20.8673 20.3024V20.3025M20.8673 20.3024V20.3025M20.8673 20.3025V20.3025M20.8673 20.3025V20.3025M20.8673 20.3025V20.3026M20.8673 20.3025V20.3026M20.8673 20.3026V20.3027M20.8673 20.3026V20.3027M20.8673 20.3027V20.3027M20.8673 20.3027V20.3027M20.8673 20.3027V20.3028M20.8673 20.3027V20.3028M20.8673 20.3028V20.3028M20.8673 20.3028V20.3028M20.8673 20.3028V20.3029M20.8673 20.3028V20.3029M20.8673 20.3029V20.303M20.8673 20.3029V20.303M20.8673 20.303V20.303M20.8673 20.303V20.303M20.8673 20.303V20.3031M20.8673 20.303V20.3031M20.8673 20.3031V20.3031M20.8673 20.3031V20.3031M20.8673 20.3031V20.3032M20.8673 20.3031V20.3032M20.8673 20.3032V20.3032M20.8673 20.3032V20.3032M20.8673 20.3032V20.3033M20.8673 20.3032V20.3033M20.8673 20.3033V20.3034M20.8673 20.3033V20.3034M20.8673 20.3034V20.3034M20.8673 20.3034V20.3034M20.8673 20.3034V20.3035M20.8673 20.3034V20.3035M20.8673 20.3035V20.3035M20.8673 20.3035V20.3035M20.8673 20.3035V20.3036M20.8673 20.3035V20.3036M20.8673 20.3036V20.3036M20.8673 20.3036V20.3036M20.8673 20.3036V20.3037M20.8673 20.3036V20.3037M20.8673 20.3037V20.3038M20.8673 20.3037V20.3038M20.8673 20.3038V20.3038M20.8673 20.3038V20.3038M20.8673 20.3038V20.3039M20.8673 20.3038V20.3039M20.8673 20.3039V20.3039M20.8673 20.3039V20.3039M20.8673 20.3039V20.304M20.8673 20.3039V20.304M20.8673 20.304V20.3041M20.8673 20.304V20.3041M20.8673 20.3041V20.3041M20.8673 20.3041V20.3041M20.8673 20.3041V20.3042M20.8673 20.3041V20.3042M20.8673 20.3042V20.3042M20.8673 20.3042V20.3042M20.8673 20.3042V20.3043M20.8673 20.3042V20.3043M20.8673 20.3043V20.3043M20.8673 20.3043V20.3043M20.8673 20.3043V20.3044M20.8673 20.3043V20.3044M20.8673 20.3044V20.3045M20.8673 20.3044V20.3045M20.8673 20.3045V20.3045M20.8673 20.3045V20.3045M20.8673 20.3045V20.3046M20.8673 20.3045V20.3046M20.8673 20.3046V20.3046M20.8673 20.3046V20.3046M20.8673 20.3046V20.3047M20.8673 20.3046V20.3047M20.8673 20.3047V20.3047M20.8673 20.3047V20.3047M20.8673 20.3047V20.3048M20.8673 20.3047V20.3048M20.8673 20.3048V20.3049M20.8673 20.3048V20.3049M20.8673 20.3049V20.3049M20.8673 20.3049V20.3049M20.8673 20.3049V20.305M20.8673 20.3049V20.305M20.8673 20.305V20.305M20.8673 20.305V20.305M20.8673 20.305V20.3051M20.8673 20.305V20.3051M20.8673 20.3051V20.3052M20.8673 20.3051V20.3052M20.8673 20.3052V20.3052M20.8673 20.3052V20.3052M20.8673 20.3052V20.3053M20.8673 20.3052V20.3053M20.8673 20.3053V20.3053M20.8673 20.3053V20.3053M20.8673 20.3053V20.3054M20.8673 20.3053V20.3054M20.8673 20.3054V20.3055M20.8673 20.3054V20.3055M20.8673 20.3055V20.3055M20.8673 20.3055V20.3055M20.8673 20.3055V20.3056M20.8673 20.3055V20.3056M20.8673 20.3056V20.3056M20.8673 20.3056V20.3056M20.8673 20.3056V20.3057M20.8673 20.3056V20.3057M20.8673 20.3057V20.3057M20.8673 20.3057V20.3057M20.8673 20.3057V20.3058M20.8673 20.3057V20.3058M20.8673 20.3058V20.3059M20.8673 20.3058V20.3059M20.8673 20.3059V20.3059M20.8673 20.3059V20.3059M20.8673 20.3059V20.306M20.8673 20.3059V20.306M20.8673 20.306V20.306M20.8673 20.306V20.306M20.8673 20.306V20.3061M20.8673 20.306V20.3061M20.8673 20.3061V20.3062M20.8673 20.3061V20.3062M20.8673 20.3062V20.3062M20.8673 20.3062V20.3062M20.8673 20.3062V20.3063M20.8673 20.3062V20.3063M20.8673 20.3063V20.3063M20.8673 20.3063V20.3063M20.8673 20.3063V20.3064M20.8673 20.3063V20.3064M20.8673 20.3064V20.3065M20.8673 20.3064V20.3065M20.8673 20.3065V20.3065M20.8673 20.3065V20.3065M20.8673 20.3065V20.3066M20.8673 20.3065V20.3066M20.8673 20.3066V20.3066M20.8673 20.3066V20.3066M20.8673 20.3066V20.3067M20.8673 20.3066V20.3067M20.8673 20.3067V20.3067M20.8673 20.3067V20.3067M20.8673 20.3067V20.3068M20.8673 20.3067V20.3068M20.8673 20.3068V20.3069M20.8673 20.3068V20.3069M20.8673 20.3069V20.3069M20.8673 20.3069V20.3069M20.8673 20.3069V20.307M20.8673 20.3069V20.307M20.8673 20.307V20.307M20.8673 20.307V20.307M20.8673 20.307V20.3071M20.8673 20.307V20.3071M20.8673 20.3071V20.3072M20.8673 20.3071V20.3072M20.8673 20.3072V20.3072M20.8673 20.3072V20.3072M20.8673 20.3072V20.3073M20.8673 20.3072V20.3073M20.8673 20.3073V20.3073M20.8673 20.3073V20.3073M20.8673 20.3073V20.3074M20.8673 20.3073V20.3074M20.8673 20.3074V20.3075M20.8673 20.3074V20.3075M20.8673 20.3075V20.3075M20.8673 20.3075V20.3075M20.8673 20.3075V20.3076M20.8673 20.3075V20.3076M20.8673 20.3076V20.3076M20.8673 20.3076V20.3076M20.8673 20.3076V20.3077M20.8673 20.3076V20.3077M20.8673 20.3077V20.3078M20.8673 20.3077V20.3078M20.8673 20.3078V20.3078M20.8673 20.3078V20.3078M20.8673 20.3078V20.3079M20.8673 20.3078V20.3079M20.8673 20.3079V20.3079M20.8673 20.3079V20.3079M20.8673 20.3079V20.308M20.8673 20.3079V20.308M20.8673 20.308V20.3081M20.8673 20.308V20.3081M20.8673 20.3081V20.3081M20.8673 20.3081V20.3081M20.8673 20.3081V20.3082M20.8673 20.3081V20.3082M20.8673 20.3082V20.3082M20.8673 20.3082V20.3082M20.8673 20.3082V20.3083M20.8673 20.3082V20.3083M20.8673 20.3083V20.3084M20.8673 20.3083V20.3084M20.8673 20.3084V20.3084M20.8673 20.3084V20.3084M20.8673 20.3084V20.3085M20.8673 20.3084V20.3085M20.8673 20.3085V20.3085M20.8673 20.3085V20.3085M20.8673 20.3085V20.3086M20.8673 20.3085V20.3086M20.8673 20.3086V20.3087M20.8673 20.3086V20.3087M20.8673 20.3087V20.3087M20.8673 20.3087V20.3087M20.8673 20.3087V20.3088M20.8673 20.3087V20.3088M20.8673 20.3088V20.3088M20.8673 20.3088V20.3088M20.8673 20.3088V20.3089M20.8673 20.3088V20.3089M20.8673 20.3089V20.309M20.8673 20.3089V20.309M20.8673 20.309V20.309M20.8673 20.309V20.309M20.8673 20.309V20.3091M20.8673 20.309V20.3091M20.8673 20.3091V20.3091M20.8673 20.3091V20.3091M20.8673 20.3091V20.3092M20.8673 20.3091V20.3092M20.8673 20.3092V20.3092M20.8673 20.3092V20.3092M20.8673 20.3092V20.3093M20.8673 20.3092V20.3093M20.8673 20.3093V20.3094M20.8673 20.3093V20.3094M20.8673 20.3094V20.3094M20.8673 20.3094V20.3094M20.8673 20.3094V20.3095M20.8673 20.3094V20.3095M20.8673 20.3095V20.3095M20.8673 20.3095V20.3095M20.8673 20.3095V20.3096M20.8673 20.3095V20.3096M20.8673 20.3096V20.3097M20.8673 20.3096V20.3097M20.8673 20.3097V20.3097M20.8673 20.3097V20.3097M20.8673 20.3097V20.3098M20.8673 20.3097V20.3098M20.8673 20.3098V20.3098M20.8673 20.3098V20.3098M20.8673 20.3098V20.3099M20.8673 20.3098V20.3099M20.8673 20.3099V20.31M20.8673 20.3099V20.31M20.8673 20.31V20.31M20.8673 20.31V20.31M20.8673 20.31V20.3101M20.8673 20.31V20.3101M20.8673 20.3101V20.3101M20.8673 20.3101V20.3101M20.8673 20.3101V20.3102M20.8673 20.3101V20.3102M20.8673 20.3102V20.3103M20.8673 20.3102V20.3103M20.8673 20.3103V20.3103M20.8673 20.3103V20.3103M20.8673 20.3103V20.3104M20.8673 20.3103V20.3104M20.8673 20.3104V20.3104M20.8673 20.3104V20.3104M20.8673 20.3104V20.3105M20.8673 20.3104V20.3105M20.8673 20.3105V20.3106M20.8673 20.3105V20.3106M20.8673 20.3106V20.3106M20.8673 20.3106V20.3106M20.8673 20.3106V20.3107M20.8673 20.3106V20.3107M20.8673 20.3107V20.3107M20.8673 20.3107V20.3107M20.8673 20.3107V20.3108M20.8673 20.3107V20.3108M20.8673 20.3108V20.3109M20.8673 20.3108V20.3109M20.8673 20.3109V20.3109M20.8673 20.3109V20.3109M20.8673 20.3109V20.311M20.8673 20.3109V20.311M20.8673 20.311V20.3111M20.8673 20.311V20.3111M20.8673 20.3111V20.3111M20.8673 20.3111V20.3111M20.8673 20.3111V20.3112M20.8673 20.3111V20.3112M20.8673 20.3112V20.3112M20.8673 20.3112V20.3112M20.8673 20.3112V20.3113M20.8673 20.3112V20.3113M20.8673 20.3113V20.3114M20.8673 20.3113V20.3114M20.8673 20.3114V20.3114M20.8673 20.3114V20.3114M20.8673 20.3114V20.3115M20.8673 20.3114V20.3115M20.8673 20.3115V20.3115M20.8673 20.3115V20.3115M20.8673 20.3115V20.3116M20.8673 20.3115V20.3116M20.8673 20.3116V20.3117M20.8673 20.3116V20.3117M20.8673 20.3117V20.3117M20.8673 20.3117V20.3117M20.8673 20.3117V20.3118M20.8673 20.3117V20.3118M20.8673 20.3118V20.3118M20.8673 20.3118V20.3118M20.8673 20.3118V20.3119M20.8673 20.3118V20.3119M20.8673 20.3119V20.312M20.8673 20.3119V20.312M20.8673 20.312V20.312M20.8673 20.312V20.312M20.8673 20.312V20.3121M20.8673 20.312V20.3121M20.8673 20.3121V20.3121M20.8673 20.3121V20.3121M20.8673 20.3121V20.3122M20.8673 20.3121V20.3122M20.8673 20.3122V20.3123M20.8673 20.3122V20.3123M20.8673 20.3123V20.3123M20.8673 20.3123V20.3123M20.8673 20.3123V20.3124M20.8673 20.3123V20.3124M20.8673 20.3124V20.3124M20.8673 20.3124V20.3124M20.8673 20.3124V20.3125M20.8673 20.3124V20.3125M20.8673 20.3125V20.3126M20.8673 20.3125V20.3126M20.8673 20.3126V20.3126M20.8673 20.3126V20.3126M20.8673 20.3126V20.3127M20.8673 20.3126V20.3127M20.8673 20.3127V20.3127M20.8673 20.3127V20.3127M20.8673 20.3127V20.3128M20.8673 20.3127V20.3128M20.8673 20.3128V20.3129M20.8673 20.3128V20.3129M20.8673 20.3129V20.3129M20.8673 20.3129V20.3129M20.8673 20.3129V20.313M20.8673 20.3129V20.313M20.8673 20.313V20.313M20.8673 20.313V20.313M20.8673 20.313V20.3131M20.8673 20.313V20.3131M20.8673 20.3131V20.3132M20.8673 20.3131V20.3132M20.8673 20.3132V20.3132M20.8673 20.3132V20.3132M20.8673 20.3132V20.3133M20.8673 20.3132V20.3133M20.8673 20.3133V20.3133M20.8673 20.3133V20.3133M20.8673 20.3133V20.3134M20.8673 20.3133V20.3134M20.8673 20.3134V20.3135M20.8673 20.3134V20.3135M20.8673 20.3135V20.3135M20.8673 20.3135V20.3135M20.8673 20.3135V20.3136M20.8673 20.3135V20.3136M20.8673 20.3136V20.3136M20.8673 20.3136V20.3136M20.8673 20.3136V20.3137M20.8673 20.3136V20.3137M20.8673 20.3137V20.3138M20.8673 20.3137V20.3138M20.8673 20.3138V20.3138M20.8673 20.3138V20.3138M20.8673 20.3138V20.3139M20.8673 20.3138V20.3139M20.8673 20.3139V20.3139M20.8673 20.3139V20.3139M20.8673 20.3139V20.314M20.8673 20.3139V20.314M20.8673 20.314V20.3141M20.8673 20.314V20.3141M20.8673 20.3141V20.3141M20.8673 20.3141V20.3141M20.8673 20.3141V20.3142M20.8673 20.3141V20.3142M20.8673 20.3142V20.3142M20.8673 20.3142V20.3142M20.8673 20.3142V20.3143M20.8673 20.3142V20.3143M20.8673 20.3143V20.3144M20.8673 20.3143V20.3144M20.8673 20.3144V20.3144M20.8673 20.3144V20.3144M20.8673 20.3144V20.3145M20.8673 20.3144V20.3145M20.8673 20.3145V20.3146M20.8673 20.3145V20.3146M20.8673 20.3146V20.3146M20.8673 20.3146V20.3146M20.8673 20.3146V20.3147M20.8673 20.3146V20.3147M20.8673 20.3147V20.3147M20.8673 20.3147V20.3147M20.8673 20.3147V20.3148M20.8673 20.3147V20.3148M20.8673 20.3148V20.3149M20.8673 20.3148V20.3149M20.8673 20.3149V20.3149M20.8673 20.3149V20.3149M20.8673 20.3149V20.315M20.8673 20.3149V20.315M20.8673 20.315V20.315M20.8673 20.315V20.315M20.8673 20.315V20.3151M20.8673 20.315V20.3151M20.8673 20.3151V20.3152M20.8673 20.3151V20.3152M20.8673 20.3152V20.3152M20.8673 20.3152V20.3152M20.8673 20.3152V20.3153M20.8673 20.3152V20.3153M20.8673 20.3153V20.3153M20.8673 20.3153V20.3153M20.8673 20.3153V20.3154M20.8673 20.3153V20.3154M20.8673 20.3154V20.3155M20.8673 20.3154V20.3155M20.8673 20.3155V20.3155M20.8673 20.3155V20.3155M20.8673 20.3155V20.3156M20.8673 20.3155V20.3156M20.8673 20.3156V20.3156M20.8673 20.3156V20.3156M20.8673 20.3156V20.3157M20.8673 20.3156V20.3157M20.8673 20.3157V20.3158M20.8673 20.3157V20.3158M20.8673 20.3158V20.3158M20.8673 20.3158V20.3158M20.8673 20.3158V20.3159M20.8673 20.3158V20.3159M20.8673 20.3159V20.3159M20.8673 20.3159V20.3159M20.8673 20.3159V20.316M20.8673 20.3159V20.316M20.8673 20.316V20.3161M20.8673 20.316V20.3161M20.8673 20.3161V20.3161M20.8673 20.3161V20.3161M20.8673 20.3161V20.3162M20.8673 20.3161V20.3162M20.8673 20.3162V20.3162M20.8673 20.3162V20.3162M20.8673 20.3162V20.3163M20.8673 20.3162V20.3163M20.8673 20.3163V20.3164M20.8673 20.3163V20.3164M20.8673 20.3164V20.3164M20.8673 20.3164V20.3164M20.8673 20.3164V20.3165M20.8673 20.3164V20.3165M20.8673 20.3165V20.3165M20.8673 20.3165V20.3165M20.8673 20.3165V20.3166M20.8673 20.3165V20.3166M20.8673 20.3166V20.3167M20.8673 20.3166V20.3167M20.8673 20.3167V20.3167M20.8673 20.3167V20.3167M20.8673 20.3167V20.3168M20.8673 20.3167V20.3168M20.8673 20.3168V20.3168M20.8673 20.3168V20.3168M20.8673 20.3168V20.3169M20.8673 20.3168V20.3169M20.8673 20.3169V20.317M20.8673 20.3169V20.317M20.8673 20.317V20.317M20.8673 20.317V20.317M20.8673 20.317V20.3171M20.8673 20.317V20.3171M20.8673 20.3171V20.3171M20.8673 20.3171V20.3171M20.8673 20.3171V20.3172M20.8673 20.3171V20.3172M20.8673 20.3172V20.3173M20.8673 20.3172V20.3173M20.8673 20.3173V20.3173M20.8673 20.3173V20.3173M20.8673 20.3173V20.3174M20.8673 20.3173V20.3174M20.8673 20.3174V20.3174M20.8673 20.3174V20.3174M20.8673 20.3174V20.3175M20.8673 20.3174V20.3175M20.8673 20.3175V20.3176M20.8673 20.3175V20.3176M20.8673 20.3176V20.3176M20.8673 20.3176V20.3176M20.8673 20.3176V20.3177M20.8673 20.3176V20.3177M20.8673 20.3177V20.3177M20.8673 20.3177V20.3177M20.8673 20.3177V20.3178M20.8673 20.3177V20.3178M20.8673 20.3178V20.3179M20.8673 20.3178V20.3179M20.8673 20.3179V20.3179M20.8673 20.3179V20.3179M20.8673 20.3179V20.318M20.8673 20.3179V20.318M20.8673 20.318V20.318M20.8673 20.318V20.318M20.8673 20.318V20.3181M20.8673 20.318V20.3181M20.8673 20.3181V20.3182M20.8673 20.3181V20.3182M20.8673 20.3182V20.3182M20.8673 20.3182V20.3182M20.8673 20.3182V20.3183M20.8673 20.3182V20.3183M20.8673 20.3183V20.3183M20.8673 20.3183V20.3183M20.8673 20.3183V20.3184M20.8673 20.3183V20.3184M20.8673 20.3184V20.3185M20.8673 20.3184V20.3185M20.8673 20.3185V20.3185M20.8673 20.3185V20.3185M20.8673 20.3185V20.3186M20.8673 20.3185V20.3186M20.8673 20.3186V20.3186M20.8673 20.3186V20.3186M20.8673 20.3186V20.3187M20.8673 20.3186V20.3187M20.8673 20.3187V20.3188M20.8673 20.3187V20.3188M20.8673 20.3188V20.3188M20.8673 20.3188V20.3188M20.8673 20.3188V20.3189M20.8673 20.3188V20.3189M20.8673 20.3189V20.3189M20.8673 20.3189V20.3189M20.8673 20.3189V20.319M20.8673 20.3189V20.319M20.8673 20.319V20.3191M20.8673 20.319V20.3191M20.8673 20.3191V20.3191M20.8673 20.3191V20.3191M20.8673 20.3191V20.3192M20.8673 20.3191V20.3192M20.8673 20.3192V20.3192M20.8673 20.3192V20.3192M20.8673 20.3192V20.3193M20.8673 20.3192V20.3193M20.8673 20.3193V20.3194M20.8673 20.3193V20.3194M20.8673 20.3194V20.3194M20.8673 20.3194V20.3194M20.8673 20.3194V20.3195M20.8673 20.3194V20.3195M20.8673 20.3195V20.3195M20.8673 20.3195V20.3195M20.8673 20.3195V20.3196M20.8673 20.3195V20.3196M20.8673 20.3196V20.3197M20.8673 20.3196V20.3197M20.8673 20.3197V20.3197M20.8673 20.3197V20.3197M20.8673 20.3197V20.3198M20.8673 20.3197V20.3198M20.8673 20.3198V20.3198M20.8673 20.3198V20.3198M20.8673 20.3198V20.3199M20.8673 20.3198V20.3199M20.8673 20.3199V20.32M20.8673 20.3199V20.32M20.8673 20.32V20.32M20.8673 20.32V20.32M20.8673 20.32V20.3201M20.8673 20.32V20.3201M20.8673 20.3201V20.3201M20.8673 20.3201V20.3201M20.8673 20.3201V20.3202M20.8673 20.3201V20.3202M20.8673 20.3202V20.3203M20.8673 20.3202V20.3203M20.8673 20.3203V20.3203M20.8673 20.3203V20.3203M20.8673 20.3203V20.3204M20.8673 20.3203V20.3204M20.8673 20.3204V20.3204M20.8673 20.3204V20.3204M20.8673 20.3204V20.3205M20.8673 20.3204V20.3205M20.8673 20.3205V20.3206M20.8673 20.3205V20.3206M20.8673 20.3206V20.3206M20.8673 20.3206V20.3206M20.8673 20.3206V20.3207M20.8673 20.3206V20.3207M20.8673 20.3207V20.3207M20.8673 20.3207V20.3207M20.8673 20.3207V20.3208M20.8673 20.3207V20.3208M20.8673 20.3208V20.3208M20.8673 20.3208V20.3208M20.8673 20.3208V20.3209M20.8673 20.3208V20.3209M20.8673 20.3209V20.321M20.8673 20.3209V20.321M20.8673 20.321V20.321M20.8673 20.321V20.321M20.8673 20.321V20.3211M20.8673 20.321V20.3211M20.8673 20.3211V20.3211M20.8673 20.3211V20.3211M20.8673 20.3211V20.3212M20.8673 20.3211V20.3212M20.8673 20.3212V20.3213M20.8673 20.3212V20.3213M20.8673 20.3213V20.3213M20.8673 20.3213V20.3213M20.8673 20.3213V20.3214M20.8673 20.3213V20.3214M20.8673 20.3214V20.3214M20.8673 20.3214V20.3214M20.8673 20.3214V20.3215M20.8673 20.3214V20.3215M20.8673 20.3215V20.3216M20.8673 20.3215V20.3216M20.8673 20.3216V20.3216M20.8673 20.3216V20.3216M20.8673 20.3216V20.3217M20.8673 20.3216V20.3217M20.8673 20.3217V20.3217M20.8673 20.3217V20.3217M20.8673 20.3217V20.3218M20.8673 20.3217V20.3218M20.8673 20.3218V20.3219M20.8673 20.3218V20.3219M20.8673 20.3219V20.3219M20.8673 20.3219V20.3219M20.8673 20.3219V20.322M20.8673 20.3219V20.322M20.8673 20.322V20.322M20.8673 20.322V20.322M20.8673 20.322V20.3221M20.8673 20.322V20.3221M20.8673 20.3221V20.3221M20.8673 20.3221V20.3221M20.8673 20.3221V20.3222M20.8673 20.3221V20.3222M20.8673 20.3222V20.3223M20.8673 20.3222V20.3223M20.8673 20.3223V20.3223M20.8673 20.3223V20.3223M20.8673 20.3223V20.3224M20.8673 20.3223V20.3224M20.8673 20.3224V20.3224M20.8673 20.3224V20.3224M20.8673 20.3224V20.3225M20.8673 20.3224V20.3225M20.8673 20.3225V20.3226M20.8673 20.3225V20.3226M20.8673 20.3226V20.3226M20.8673 20.3226V20.3226M20.8673 20.3226V20.3227M20.8673 20.3226V20.3227M20.8673 20.3227V20.3227M20.8673 20.3227V20.3227M20.8673 20.3227V20.3228M20.8673 20.3227V20.3228M20.8673 20.3228V20.3229M20.8673 20.3228V20.3229M20.8673 20.3229V20.3229M20.8673 20.3229V20.3229M20.8673 20.3229V20.323M20.8673 20.3229V20.323M20.8673 20.323V20.323M20.8673 20.323V20.323M20.8673 20.323V20.3231M20.8673 20.323V20.3231M20.8673 20.3231V20.3231M20.8673 20.3231V20.3231M20.8673 20.3231V20.3232M20.8673 20.3231V20.3232M20.8673 20.3232V20.3233M20.8673 20.3232V20.3233M20.8673 20.3233V20.3233M20.8673 20.3233V20.3233M20.8673 20.3233V20.3234M20.8673 20.3233V20.3234M20.8673 20.3234V20.3234M20.8673 20.3234V20.3234M20.8673 20.3234V20.3235M20.8673 20.3234V20.3235M20.8673 20.3235V20.3236M20.8673 20.3235V20.3236M20.8673 20.3236V20.3236M20.8673 20.3236V20.3236M20.8673 20.3236V20.3237M20.8673 20.3236V20.3237M20.8673 20.3237V20.3237M20.8673 20.3237V20.3237M20.8673 20.3237V20.3238M20.8673 20.3237V20.3238M20.8673 20.3238V20.3238V20.3238ZM22.095 20.6063L22.095 20.6063L22.0955 20.6024C22.0965 20.5946 22.0981 20.587 22.1019 20.5686C22.105 20.5533 22.1097 20.5295 22.1114 20.5032L22.1117 20.5032V20.4938V20.4938V20.4937V20.4937V20.4936V20.4935V20.4935V20.4934V20.4934V20.4933V20.4933V20.4932V20.4932V20.4931V20.493V20.493V20.4929V20.4929V20.4928V20.4928V20.4927V20.4927V20.4926V20.4925V20.4925V20.4924V20.4924V20.4923V20.4923V20.4922V20.4922V20.4921V20.492V20.492V20.4919V20.4919V20.4918V20.4918V20.4917V20.4916V20.4916V20.4915V20.4915V20.4914V20.4914V20.4913V20.4913V20.4912V20.4911V20.4911V20.491V20.491V20.4909V20.4909V20.4908V20.4907V20.4907V20.4906V20.4906V20.4905V20.4905V20.4904V20.4903V20.4903V20.4902V20.4902V20.4901V20.4901V20.49V20.4899V20.4899V20.4898V20.4898V20.4897V20.4897V20.4896V20.4895V20.4895V20.4894V20.4894V20.4893V20.4893V20.4892V20.4891V20.4891V20.489V20.489V20.4889V20.4888V20.4888V20.4887V20.4887V20.4886V20.4886V20.4885V20.4884V20.4884V20.4883V20.4883V20.4882V20.4881V20.4881V20.488V20.488V20.4879V20.4879V20.4878V20.4877V20.4877V20.4876V20.4876V20.4875V20.4874V20.4874V20.4873V20.4873V20.4872V20.4872V20.4871V20.487V20.487V20.4869V20.4869V20.4868V20.4867V20.4867V20.4866V20.4866V20.4865V20.4864V20.4864V20.4863V20.4863V20.4862V20.4861V20.4861V20.486V20.486V20.4859V20.4859V20.4858V20.4857V20.4857V20.4856V20.4856V20.4855V20.4854V20.4854V20.4853V20.4853V20.4852V20.4851V20.4851V20.485V20.485V20.4849V20.4848V20.4848V20.4847V20.4847V20.4846V20.4845V20.4845V20.4844V20.4844V20.4843V20.4842V20.4842V20.4841V20.4841V20.484V20.4839V20.4839V20.4838V20.4838V20.4837V20.4836V20.4836V20.4835V20.4835V20.4834V20.4833V20.4833V20.4832V20.4832V20.4831V20.483V20.483V20.4829V20.4829V20.4828V20.4827V20.4827V20.4826V20.4826V20.4825V20.4824V20.4824V20.4823V20.4823V20.4822V20.4821V20.4821V20.482V20.482V20.4819V20.4818V20.4818V20.4817V20.4817V20.4816V20.4815V20.4815V20.4814V20.4814V20.4813V20.4812V20.4812V20.4811V20.4811V20.481V20.4809V20.4809V20.4808V20.4808V20.4807V20.4806V20.4806V20.4805V20.4805V20.4804V20.4803V20.4803V20.4802V20.4802V20.4801V20.48V20.48V20.4799V20.4799V20.4798V20.4797V20.4797V20.4796V20.4796V20.4795V20.4794V20.4794V20.4793V20.4793V20.4792V20.4791V20.4791V20.479V20.479V20.4789V20.4788V20.4788V20.4787V20.4787V20.4786L22.1237 20.4183L22.1267 20.4037V20.3889V20.3889V20.3888V20.3888V20.3888V20.3887V20.3887V20.3887V20.3886V20.3886V20.3886V20.3885V20.3885V20.3885V20.3884V20.3884V20.3884V20.3883V20.3883V20.3883V20.3882V20.3882V20.3882V20.3881V20.3881V20.3881V20.3881V20.388V20.388V20.388V20.3879V20.3879V20.3879V20.3878V20.3878V20.3878V20.3877V20.3877V20.3877V20.3876V20.3876V20.3876V20.3875L24.5056 7.55033L24.5173 7.51524L24.525 7.49215V7.4678V7.42283C24.525 6.60172 23.8885 5.91755 23.086 5.84096V4.54482C23.086 3.67315 22.3687 2.95581 21.497 2.95581H9.08193C9.06364 2.93809 9.03776 2.91133 9.00371 2.8723L9.00356 2.87213C8.90486 2.75932 8.78885 2.57338 8.65192 2.35391C8.63918 2.33349 8.62626 2.31278 8.61316 2.29182C8.46387 2.05297 8.2967 1.78795 8.08873 1.55251C7.88269 1.31925 7.56731 1.03713 7.10691 1.03713H1.83054C0.958871 1.03713 0.241537 1.75447 0.241537 2.62614V20.3103C0.210201 20.4437 0.223927 20.5819 0.278174 20.7058C0.433454 21.4189 1.07348 21.9629 1.83054 21.9629H20.5376C21.3314 21.9629 21.9795 21.3652 22.095 20.6063ZM2.64215 7.39683L1.50088 13.5549V2.62614C1.50088 2.43917 1.64357 2.29647 1.83054 2.29647H7.05555C7.07286 2.30881 7.10312 2.33353 7.14392 2.38015C7.24262 2.49296 7.35863 2.6789 7.49555 2.89836C7.5083 2.91878 7.52122 2.9395 7.53432 2.96047C7.68442 3.20062 7.85461 3.46424 8.05782 3.69871C8.25931 3.93119 8.56371 4.21515 9.02558 4.21515H21.497C21.684 4.21515 21.8267 4.35785 21.8267 4.54482V5.83383H4.22889C3.43764 5.83383 2.80471 6.43226 2.68614 7.1829H2.6778L2.65691 7.30824L2.64215 7.39683ZM7.11441 2.29597C7.11081 2.2963 7.10805 2.2964 7.10691 2.29644V2.15185C7.12238 2.16037 7.16119 2.18239 7.21768 2.2393C7.18686 2.2788 7.14643 2.28956 7.14057 2.29112C7.14036 2.29118 7.14019 2.29122 7.14008 2.29125C7.12734 2.2948 7.11715 2.29572 7.11441 2.29597Z" fill="#676D75" stroke="#676D75" stroke-width="0.3"/>
</svg>
