<svg width="12" height="15" viewBox="0 0 12 15" fill="none" xmlns="http://www.w3.org/2000/svg">
<path d="M6 0.429688C3.18064 0.429688 0.900391 2.70994 0.900391 5.5293C0.900391 9.354 6 15 6 15C6 15 11.0996 9.354 11.0996 5.5293C11.0996 2.70994 8.81936 0.429688 6 0.429688ZM2.35742 5.5293C2.35742 3.51859 3.9893 1.88672 6 1.88672C8.0107 1.88672 9.64258 3.51859 9.64258 5.5293C9.64258 7.62742 7.54445 10.7673 6 12.727C4.48469 10.7819 2.35742 7.60557 2.35742 5.5293Z" fill="#6FCF97"/>
<path d="M6.00024 7.34998C7.00611 7.34998 7.82153 6.53456 7.82153 5.52869C7.82153 4.52282 7.00611 3.7074 6.00024 3.7074C4.99437 3.7074 4.17896 4.52282 4.17896 5.52869C4.17896 6.53456 4.99437 7.34998 6.00024 7.34998Z" fill="#6FCF97"/>
</svg>
