<svg width="6" height="18" viewBox="0 0 6 18" fill="none" xmlns="http://www.w3.org/2000/svg">
<g clip-path="url(#clip0_255_387)">
<path d="M2.9233 11C4.09782 11 5.04996 10.1046 5.04996 9C5.04996 7.89543 4.09782 7 2.9233 7C1.74877 7 0.796631 7.89543 0.796631 9C0.796631 10.1046 1.74877 11 2.9233 11Z" fill="#909090"/>
<path d="M2.9233 4C4.09782 4 5.04996 3.10457 5.04996 2C5.04996 0.89543 4.09782 0 2.9233 0C1.74877 0 0.796631 0.89543 0.796631 2C0.796631 3.10457 1.74877 4 2.9233 4Z" fill="#909090"/>
<path d="M2.9233 18C4.09782 18 5.04996 17.1046 5.04996 16C5.04996 14.8954 4.09782 14 2.9233 14C1.74877 14 0.796631 14.8954 0.796631 16C0.796631 17.1046 1.74877 18 2.9233 18Z" fill="#909090"/>
</g>
<defs>
<clipPath id="clip0_255_387">
<rect width="4.25333" height="18" fill="white" transform="translate(0.796631)"/>
</clipPath>
</defs>
</svg>
